{
  "accessors": [
    {
      "bufferView": 2,
      "componentType": 5126,
      "count": 3385,
      "max": [
        76.60111999511719,
        83.69549560546875,
        150.75067138671875
      ],
      "min": [
        -80.58661651611328,
        -78.13127899169922,
        3.636331796646118
      ],
      "type": "VEC3"
    },
    {
      "bufferView": 2,
      "byteOffset": 40620,
      "componentType": 5126,
      "count": 3385,
      "max": [
        1.0,
        1.0,
        1.0
      ],
      "min": [
        -1.0,
        -1.0,
        -1.0
      ],
      "type": "VEC3"
    },
    {
      "bufferView": 3,
      "componentType": 5126,
      "count": 3385,
      "max": [
        1.0,
        0.9999820590019226,
        0.9999990463256836,
        1.0
      ],
      "min": [
        -1.0,
        -1.0,
        -0.9999990463256836,
        -1.0
      ],
      "type": "VEC4"
    },
    {
      "bufferView": 1,
      "componentType": 5126,
      "count": 3385,
      "max": [
        0.9919382333755493,
        0.9872277975082397
      ],
      "min": [
        0.016024693846702576,
        0.009612679481506348
      ],
      "type": "VEC2"
    },
    {
      "bufferView": 0,
      "componentType": 5125,
      "count": 10824,
      "type": "SCALAR"
    }
  ],
  "asset": {
    "extras": {
      "author": "Pants85 (https://sketchfab.com/Pants85)",
      "license": "CC-BY-4.0 (http://creativecommons.org/licenses/by/4.0/)",
      "source": "https://sketchfab.com/3d-models/compost-bin-sm-sg-daaa0514f23a4ca18e955ea576671ef0",
      "title": "Compost Bin SM SG"
    },
    "generator": "Sketchfab-12.67.0",
    "version": "2.0"
  },
  "bufferViews": [
    {
      "buffer": 0,
      "byteLength": 43296,
      "name": "floatBufferViews",
      "target": 34963
    },
    {
      "buffer": 0,
      "byteLength": 27080,
      "byteOffset": 43296,
      "byteStride": 8,
      "name": "floatBufferViews",
      "target": 34962
    },
    {
      "buffer": 0,
      "byteLength": 81240,
      "byteOffset": 70376,
      "byteStride": 12,
      "name": "floatBufferViews",
      "target": 34962
    },
    {
      "buffer": 0,
      "byteLength": 54160,
      "byteOffset": 151616,
      "byteStride": 16,
      "name": "floatBufferViews",
      "target": 34962
    }
  ],
  "buffers": [
    {
      "byteLength": 205776,
      "uri": "scene.bin"
    }
  ],
  "images": [
    {
      "uri": "textures/Scene_-_Root_baseColor.png"
    },
    {
      "uri": "textures/Scene_-_Root_metallicRoughness.png"
    },
    {
      "uri": "textures/Scene_-_Root_normal.png"
    }
  ],
  "materials": [
    {
      "doubleSided": true,
      "name": "Scene_-_Root",
      "normalTexture": {
        "index": 2
      },
      "pbrMetallicRoughness": {
        "baseColorTexture": {
          "index": 0
        },
        "metallicRoughnessTexture": {
          "index": 1
        }
      }
    }
  ],
  "meshes": [
    {
      "name": "Compost_Bin__0",
      "primitives": [
        {
          "attributes": {
            "NORMAL": 1,
            "POSITION": 0,
            "TANGENT": 2,
            "TEXCOORD_0": 3
          },
          "indices": 4,
          "material": 0,
          "mode": 4
        }
      ]
    }
  ],
  "nodes": [
    {
      "children": [
        1
      ],
      "matrix": [
        1.0,
        0.0,
        0.0,
        0.0,
        0.0,
        2.220446049250313e-16,
        -1.0,
        0.0,
        0.0,
        1.0,
        2.220446049250313e-16,
        0.0,
        0.0,
        0.0,
        0.0,
        1.0
      ],
      "name": "Sketchfab_model"
    },
    {
      "children": [
        2
      ],
      "matrix": [
        1.0,
        0.0,
        0.0,
        0.0,
        0.0,
        0.0,
        1.0,
        0.0,
        0.0,
        -1.0,
        0.0,
        0.0,
        0.0,
        0.0,
        0.0,
        1.0
      ],
      "name": "684e7cea9af240aca78ff11174b15373.fbx"
    },
    {
      "children": [
        3
      ],
      "name": "RootNode"
    },
    {
      "children": [
        4
      ],
      "matrix": [
        1.1102230246251565e-15,
        1.1102230246251565e-16,
        -1.0,
        0.0,
        -1.0,
        0.0,
        -1.2212453270876722e-15,
        0.0,
        1.1102230246251565e-16,
        1.0,
        0.0,
        0.0,
        -1.3955071940954886e-14,
        -3.5790891647338867,
        -8.266365632910062e-15,
        1.0
      ],
      "name": "Compost_Bin"
    },
    {
      "mesh": 0,
      "name": "Compost_Bin__0"
    }
  ],
  "samplers": [
    {
      "magFilter": 9729,
      "minFilter": 9987,
      "wrapS": 10497,
      "wrapT": 10497
    }
  ],
  "scene": 0,
  "scenes": [
    {
      "name": "Sketchfab_Scene",
      "nodes": [
        0
      ]
    }
  ],
  "textures": [
    {
      "sampler": 0,
      "source": 0
    },
    {
      "sampler": 0,
      "source": 1
    },
    {
      "sampler": 0,
      "source": 2
    }
  ]
}
